HIERARCHY
ROOT Hips
{
    OFFSET 0.0 0.0 0.0
    CHANNELS 6 Xposition Yposition Zposition Zrotation Xrotation Yrotation
    JOINT LeftUpLeg
    {
        OFFSET 15.35291498182699 0.0 0.0
        CHANNELS 3 Zrotation Xrotation Yrotation
        JOINT LeftLeg
        {
            OFFSET 0.0 0.0 -61.809889125568475
            CHANNELS 3 Zrotation Xrotation Yrotation
            JOINT LeftFoot
            {
                OFFSET 0.0 0.0 -44.61541047574281
                CHANNELS 3 Zrotation Xrotation Yrotation
                JOINT LeftToeBase
                {
                    OFFSET 0.0 -13.009709794533848 0.0
                    CHANNELS 3 Zrotation Xrotation Yrotation
                    End Site
                    {
                        OFFSET 0 0 0
                    }
                }
            }
        }
    }
    JOINT RightUpLeg
    {
        OFFSET -15.35291498182699 0.0 0.0
        CHANNELS 3 Zrotation Xrotation Yrotation
        JOINT RightLeg
        {
            OFFSET 0.0 0.0 -61.809889125568475
            CHANNELS 3 Zrotation Xrotation Yrotation
            JOINT RightFoot
            {
                OFFSET 0.0 0.0 -44.61541047574281
                CHANNELS 3 Zrotation Xrotation Yrotation
                JOINT RightToeBase
                {
                    OFFSET 0.0 -13.009709794533848 0.0
                    CHANNELS 3 Zrotation Xrotation Yrotation
                    End Site
                    {
                        OFFSET 0 0 0
                    }
                }
            }
        }
    }
    JOINT Spine
    {
        OFFSET 0.0 0.0 11.173983461003566
        CHANNELS 3 Zrotation Xrotation Yrotation
        JOINT Spine1
        {
            OFFSET 0.0 0.0 10.939441773789088
            CHANNELS 3 Zrotation Xrotation Yrotation
            JOINT Spine2
            {
                OFFSET 0.0 0.0 10.939441773789088
                CHANNELS 3 Zrotation Xrotation Yrotation
                JOINT Spine3
                {
                    OFFSET 0.0 0.0 10.939441773789085
                    CHANNELS 3 Zrotation Xrotation Yrotation
                    JOINT Spine4
                    {
                        OFFSET 0.0 0.0 10.939441773789092
                        CHANNELS 3 Zrotation Xrotation Yrotation
                        JOINT RightShoulder
                        {
                            OFFSET -25.647313787561764 0.0 0.0
                            CHANNELS 3 Zrotation Xrotation Yrotation
                            JOINT RightArm
                            {
                                OFFSET -32.461614658321594 0.0 0.0
                                CHANNELS 3 Zrotation Xrotation Yrotation
                                JOINT RightForeArm
                                {
                                    OFFSET -32.729501992246405 0.0 0.0
                                    CHANNELS 3 Zrotation Xrotation Yrotation
                                    JOINT RightHand
                                    {
                                        OFFSET -11.703768783635535 0.0 0.0
                                        CHANNELS 3 Zrotation Xrotation Yrotation
                                        End Site
                                        {
                                            OFFSET 0 0 0
                                        }
                                    }
                                }
                            }
                        }
                        JOINT LeftShoulder
                        {
                            OFFSET 25.647313787561764 0.0 0.0
                            CHANNELS 3 Zrotation Xrotation Yrotation
                            JOINT LeftArm
                            {
                                OFFSET 32.461614658321594 0.0 0.0
                                CHANNELS 3 Zrotation Xrotation Yrotation
                                JOINT LeftForeArm
                                {
                                    OFFSET 32.729501992246405 0.0 0.0
                                    CHANNELS 3 Zrotation Xrotation Yrotation
                                    JOINT LeftHand
                                    {
                                        OFFSET 11.703768783635535 0.0 0.0
                                        CHANNELS 3 Zrotation Xrotation Yrotation
                                        End Site
                                        {
                                            OFFSET 0 0 0
                                        }
                                    }
                                }
                            }
                        }
                        JOINT Neck
                        {
                            OFFSET 0.0 0.0 10.93944187239606
                            CHANNELS 3 Zrotation Xrotation Yrotation
                            JOINT Head
                            {
                                OFFSET 0.0 0.0 26.40107482337893
                                CHANNELS 3 Zrotation Xrotation Yrotation
                                End Site
                                {
                                    OFFSET 0 0 0
                                }
                            }
                        }
                    }
                }
            }
        }
    }
}
MOTION
Frames: 4
Frame Time: 0.03333333333333333
139.04552421569826 -4.119599752128124 489.6710025787354 93.43104000974976 -74.81037897178702 91.45386260171306 9.298309222085763 -7.868905865104062 -19.949630416697577 -5.092349716720366 2.067237281427238 6.7180504367318825 -11.78847800751534 -1.5902773407317584e-14 46.303000439358826 0.0 0.0 0.0 17.520838634766406 17.545761616931514 10.27904817715955 -48.93690100205709 -25.434558432016143 -36.27769472940426 116.00427242954208 6.3611093629270335e-15 -66.19759917408525 0.0 0.0 0.0 0.04865987357851678 -0.9812875901933866 0.2549353174981944 0.0 0.0 0.0 0.0 0.0 0.0 0.0 0.0 0.0 0.0 0.0 0.0 139.15195564468846 -15.692150080477816 -125.36126002709577 108.16772469261699 1.8657149216000923e-15 -2.575856345586503e-15 2.258091658324811e-15 5.928173606649888 -1.285618438588338e-14 0.0 0.0 0.0 -160.78003889029048 -20.71056677700967 139.53769787003696 -115.9511169568808 -1.5968441231104978e-14 1.0456593946839765e-14 180.0 35.26055825583165 -180.0 0.0 0.0 -1.5902773407317584e-15 -9.499500205284255 2.9709498508794303e-15 -2.1467822356198302e-15 0.0 0.0 0.0
139.04552421569826 -4.119599752128124 489.6710025787354 93.43104000974976 -74.81037897178702 91.45386260171306 9.298309222085763 -7.868905865104062 -19.949630416697577 -5.092349716720366 2.067237281427238 6.7180504367318825 -11.78847800751534 -1.5902773407317584e-14 46.303000439358826 0.0 0.0 0.0 17.520838634766406 17.545761616931514 10.27904817715955 -48.93690100205709 -25.434558432016143 -36.27769472940426 116.00427242954208 6.3611093629270335e-15 -66.19759917408525 0.0 0.0 0.0 0.04865987357851678 -0.9812875901933866 0.2549353174981944 0.0 0.0 0.0 0.0 0.0 0.0 0.0 0.0 0.0 0.0 0.0 0.0 139.15195564468846 -15.692150080477816 -125.36126002709577 108.16772469261699 1.8657149216000923e-15 -2.575856345586503e-15 2.258091658324811e-15 5.928173606649888 -1.285618438588338e-14 0.0 0.0 0.0 -160.78003889029048 -20.71056677700967 139.53769787003696 -115.9511169568808 -1.5968441231104978e-14 1.0456593946839765e-14 180.0 35.26055825583165 -180.0 0.0 0.0 -1.5902773407317584e-15 -9.499500205284255 2.9709498508794303e-15 -2.1467822356198302e-15 0.0 0.0 0.0
139.04552421569826 -4.119599752128124 489.6710025787354 93.43104000974976 -74.81037897178702 91.45386260171306 9.298309222085763 -7.868905865104062 -19.949630416697577 -5.092349716720366 2.067237281427238 6.7180504367318825 -11.78847800751534 -1.5902773407317584e-14 46.303000439358826 0.0 0.0 0.0 17.520838634766406 17.545761616931514 10.27904817715955 -48.93690100205709 -25.434558432016143 -36.27769472940426 116.00427242954208 6.3611093629270335e-15 -66.19759917408525 0.0 0.0 0.0 0.04865987357851678 -0.9812875901933866 0.2549353174981944 0.0 0.0 0.0 0.0 0.0 0.0 0.0 0.0 0.0 0.0 0.0 0.0 139.15195564468846 -15.692150080477816 -125.36126002709577 108.16772469261699 1.8657149216000923e-15 -2.575856345586503e-15 2.258091658324811e-15 5.928173606649888 -1.285618438588338e-14 0.0 0.0 0.0 -160.78003889029048 -20.71056677700967 139.53769787003696 -115.9511169568808 -1.5968441231104978e-14 1.0456593946839765e-14 180.0 35.26055825583165 -180.0 0.0 0.0 -1.5902773407317584e-15 -9.499500205284255 2.9709498508794303e-15 -2.1467822356198302e-15 0.0 0.0 0.0
138.9992259979248 -3.829017055034637 489.6010494232178 93.54689563970592 -74.82551335082708 91.5858174991927 8.996421122985119 -7.665834129586828 -19.818331833598613 -4.734629270717543 1.9279964051627931 6.413780030712679 -15.875171938766309 1.5902773407317584e-15 45.30039820150564 0.0 0.0 0.0 17.9763694191584 17.573563971474364 10.062722887758516 -49.46545475861214 -25.33049959782717 -36.245315990371964 117.8013724518851 9.54166404439055e-15 -63.24903682861121 6.3611093629270335e-15 0.0 0.0 0.042011756307427914 -0.9241226901342423 0.24832481792769376 0.0 0.0 0.0 0.0 0.0 0.0 0.0 0.0 0.0 0.0 0.0 0.0 139.29181738096366 -15.780024071748384 -125.2849501643768 107.91779071406225 4.704240496975139e-16 -1.1458000099345415e-14 -2.2149153715374266e-15 5.551639360731578 1.284455416017903e-14 0.0 0.0 0.0 -159.80619708757783 -20.69044123125686 138.37910833726244 -114.72751604498819 6.428815719992307e-15 -1.756580534004319e-15 -180.0 35.90872707887413 180.0 0.0 0.0 -1.5902773407317584e-15 -9.820820065471665 -6.04067994709961e-15 -5.189745632644939e-16 0.0 0.0 0.0
